<svg id="Группа_1_копия" data-name="Группа 1 копия" xmlns="http://www.w3.org/2000/svg" width="227" height="172" viewBox="0 0 227 172">
  <metadata><?xpacket begin="﻿" id="W5M0MpCehiHzreSzNTczkc9d"?>
<x:xmpmeta xmlns:x="adobe:ns:meta/" x:xmptk="Adobe XMP Core 5.6-c138 79.159824, 2016/09/14-01:09:01        ">
   <rdf:RDF xmlns:rdf="http://www.w3.org/1999/02/22-rdf-syntax-ns#">
      <rdf:Description rdf:about=""/>
   </rdf:RDF>
</x:xmpmeta>
                                                                                                    
                                                                                                    
                                                                                                    
                                                                                                    
                                                                                                    
                                                                                                    
                                                                                                    
                                                                                                    
                                                                                                    
                                                                                                    
                                                                                                    
                                                                                                    
                                                                                                    
                                                                                                    
                                                                                                    
                                                                                                    
                                                                                                    
                                                                                                    
                                                                                                    
                                                                                                    
                           
<?xpacket end="w"?></metadata>
<defs>
    <style>
      .cls-1 {
        opacity: 0.33;
      }

      .cls-2 {
        fill: #67c840;
      }

      .cls-3 {
        fill: #fff;
      }

      .cls-4 {
        font-size: 41.667px;
        font-family: Arial;
        font-weight: 700;
      }

      .cls-5, .cls-6 {
        fill-rule: evenodd;
      }

      .cls-5 {
        opacity: 0.15;
      }

      .cls-6 {
        fill: none;
        stroke: #fff;
        stroke-linecap: round;
        stroke-width: 8.333px;
        opacity: 0.8;
      }
    </style>
  </defs>
  <ellipse id="Эллипс_3" data-name="Эллипс 3" class="cls-1" cx="166.5" cy="130.5" rx="50.5" ry="6.5"/>
  <g id="Группа_2" data-name="Группа 2">
    <circle id="Эллипс_1" data-name="Эллипс 1" class="cls-2" cx="147.5" cy="71.469" r="57.5"/>
    <circle id="Эллипс_2" data-name="Эллипс 2" class="cls-3" cx="146.375" cy="72.313" r="27.5"/>
    <text id="_36" data-name="36" class="cls-4" transform="translate(121.064 84.304) rotate(8.242)">36</text>
    <path id="Фигура_1" data-name="Фигура 1" class="cls-5" d="M96.684,97.953c20.971,11.161,18.29,11.686,31.7,14.308,33.857,6.619,64.295-18.679,61.219-58.4-0.472-9.544-3.216-19.775-7.214-27.028,28.908,19.45,26.5,60.953,13.566,76.4-19.028,22.733-39.4,33.962-73.721,20.645-13.936-5.407-19.673-15.706-26.393-27.063C96.846,98.322,96.507,97.718,96.684,97.953Z"/>
    <path id="Фигура_2" data-name="Фигура 2" class="cls-6" d="M97.921,56.394a42.244,42.244,0,0,1,7.1-14.128"/>
    <path id="Фигура_3" data-name="Фигура 3" class="cls-6" d="M117.769,30.977S131.986,16,160.5,22.009"/>
  </g>
  <ellipse id="Эллипс_3-2" data-name="Эллипс 3" class="cls-1" cx="92.5" cy="155.5" rx="50.5" ry="6.5"/>
  <g id="Группа_2-2" data-name="Группа 2">
    <circle id="Эллипс_1-2" data-name="Эллипс 1" class="cls-2" cx="73.547" cy="96.516" r="57.515"/>
    <circle id="Эллипс_2-2" data-name="Эллипс 2" class="cls-3" cx="72.75" cy="97.703" r="27.5"/>
    <text id="_5" data-name="5" class="cls-4" transform="translate(63.747 115.22) rotate(-11.568)">5</text>
    <path id="Фигура_1-2" data-name="Фигура 1" class="cls-5" d="M34.7,138.667c23.513,3.394,21.168,4.8,34.67,2.719,34.1-5.246,54.161-39.362,37.805-75.686-3.677-8.82-9.727-17.515-15.946-22.984,33.79,8.5,45.585,48.367,38.655,67.283-10.2,27.836-25.556,45.3-62.362,44.407-14.943-.364-23.831-8.109-34-16.517C34.975,138.959,34.451,138.506,34.7,138.667Z"/>
    <path id="Фигура_2-2" data-name="Фигура 2" class="cls-6" d="M21.217,99.944a42.239,42.239,0,0,1,1.891-15.7"/>
    <path id="Фигура_3-2" data-name="Фигура 3" class="cls-6" d="M31.278,69.3s8.3-18.913,37.159-22.917"/>
  </g>
</svg>
